<svg width="25" height="25" viewBox="0 0 25 25" fill="none" xmlns="http://www.w3.org/2000/svg">
<path d="M16.5812 3C17.9459 3 19.1653 3.42138 20.2151 4.20884L20.4225 4.37144L20.424 4.37217C21.3389 5.1212 21.9601 6.04826 22.2851 7.14595L22.3458 7.36815L22.3465 7.37035C22.4465 7.77238 22.5 8.18759 22.5 8.60421V16.3789C22.5 17.7267 22.0133 18.9231 21.1217 19.9517L21.121 19.9524C20.3887 20.795 19.4678 21.3866 18.378 21.7256C17.9245 21.8695 17.4568 21.9528 16.9825 21.9882L16.9818 21.9875C16.8327 21.9999 16.6812 22 16.5543 22H8.44572C6.8993 22 5.55022 21.4794 4.41428 20.4873C3.51663 19.7092 2.93443 18.7419 2.65347 17.6193V17.6186C2.5536 17.2169 2.5 16.807 2.5 16.3899V8.65497C2.5 7.31171 2.96133 6.11463 3.8498 5.08291L4.016 4.89676C4.86353 3.98745 5.9319 3.39833 7.18576 3.12581H7.18725C7.58113 3.04185 7.98089 3 8.39107 3H16.5812ZM8.39107 3.75341C8.03477 3.75341 7.68946 3.78987 7.34971 3.8623L7.34896 3.86156C6.24274 4.10241 5.31696 4.61668 4.58048 5.40737L4.43524 5.56924C3.65952 6.46992 3.26661 7.4962 3.26661 8.65497V16.3899C3.26661 16.7433 3.31145 17.0933 3.39762 17.4398L3.44703 17.6208C3.68923 18.4601 4.1286 19.1873 4.77887 19.7942L4.92186 19.9222L4.92261 19.923C5.92165 20.7958 7.09093 21.2466 8.44572 21.2466H16.5543C16.6885 21.2466 16.8085 21.2465 16.9204 21.237L16.9249 21.2363C17.3476 21.2047 17.7555 21.1319 18.1444 21.0082L18.3241 20.9493C19.203 20.6449 19.9412 20.1496 20.5378 19.4631C21.3214 18.5593 21.7334 17.5331 21.7334 16.3789V8.60421C21.7334 8.25039 21.6877 7.89522 21.6016 7.54914V7.5484C21.3367 6.51101 20.7851 5.64833 19.9337 4.95121C18.9707 4.16751 17.852 3.75341 16.5812 3.75341H8.39107ZM12.5004 7.20554C15.5443 7.18779 18.0769 9.58698 18.071 12.5147C18.0651 15.4216 15.5308 17.8122 12.4622 17.7945C9.445 17.7764 6.91732 15.403 6.93496 12.4617C6.95197 9.70373 9.2521 7.39416 12.1201 7.2232V7.20775L12.5004 7.20554ZM12.4996 7.96484C9.86176 7.94427 7.71666 10.0188 7.70157 12.4662C7.68657 14.9646 9.84515 17.0253 12.4667 17.041C15.1353 17.0564 17.2994 14.9791 17.3044 12.5132C17.3092 10.1186 15.3059 8.10367 12.8051 7.96705L12.4996 7.96484ZM12.546 8.61892C14.6738 8.64367 16.5766 10.2562 16.5767 12.4971C16.5767 14.6859 14.7413 16.3697 12.5034 16.37C10.2305 16.37 8.44824 14.6522 8.43 12.4948V12.4823C8.45436 10.2337 10.3714 8.6006 12.5445 8.61892H12.546ZM12.5371 9.37233C10.7469 9.35769 9.21605 10.6958 9.19661 12.4904C9.21224 14.2195 10.6379 15.6166 12.5034 15.6166C14.349 15.6163 15.8101 14.2398 15.8101 12.4971C15.81 10.7172 14.2958 9.39283 12.5371 9.37233ZM18.4154 5.79806C19.0361 5.79824 19.5404 6.26121 19.5488 6.87372L19.5541 7.25484H19.4747C19.3179 7.67386 18.9062 7.96456 18.4214 7.96484C17.8017 7.96484 17.2932 7.5017 17.2932 6.88402C17.2932 6.26458 17.7974 5.79815 18.4154 5.79806ZM18.4154 6.55146C18.2015 6.55155 18.0598 6.69938 18.0598 6.88402C18.0598 7.05944 18.198 7.21143 18.4214 7.21143C18.6331 7.2111 18.777 7.059 18.777 6.87814V6.83693C18.7528 6.67794 18.6179 6.55162 18.4154 6.55146Z" fill="#9D2824"/>
</svg>
