<svg width="25" height="25" viewBox="0 0 25 25" fill="none" xmlns="http://www.w3.org/2000/svg">
<path d="M13.4476 3.18453C15.4051 3.50243 16.9268 4.53168 18.0005 6.22146H18.0012C18.5202 7.03351 18.8209 7.93947 18.9447 8.89686H18.9453C19.0108 9.37525 19.016 9.85297 18.9688 10.3237C18.9211 10.8403 18.8025 11.3506 18.6525 11.8446C18.3178 12.9573 17.8295 13.9987 17.316 15.005V15.0057C16.442 16.7142 15.4051 18.3146 14.3675 19.8989C14.0053 20.4562 13.6395 21.0278 13.2335 21.5762L13.2286 21.5824C13.2189 21.5948 13.2094 21.6062 13.2024 21.6146C13.1934 21.6253 13.1907 21.6283 13.1844 21.6359C13.1764 21.6455 13.1739 21.6495 13.1734 21.6503C13.0545 21.834 12.8902 21.938 12.7099 21.9789C12.5492 22.0153 12.3923 21.9968 12.2865 21.9816V21.9809C12.1377 21.9599 12.0355 21.8782 11.9833 21.83C11.955 21.8039 11.9306 21.7773 11.9136 21.7587C11.8933 21.7365 11.8848 21.7264 11.8742 21.7155L11.8666 21.7079L11.8597 21.6997C11.589 21.3834 11.3664 21.0299 11.1594 20.7153V20.7146C10.2675 19.3672 9.3759 18.0121 8.55136 16.6089L8.55067 16.6075C7.79463 15.3103 7.08072 13.9641 6.55945 12.5231V12.5224C6.34653 11.9281 6.17338 11.3149 6.08081 10.6777L6 10.6688V8.58404L6.096 8.60188C6.1861 8.05858 6.34453 7.5316 6.57671 7.02682C7.56796 4.87952 9.23565 3.61388 11.5137 3.18796V3.18934C11.538 3.18451 11.5598 3.1813 11.5779 3.17973L11.6214 3.1125H13.0753L13.4034 3L13.4476 3.18453ZM11.9232 3.8232C11.8524 3.85833 11.7856 3.86943 11.7416 3.87396C11.703 3.87793 11.6598 3.87855 11.6504 3.87877H11.6442C9.58942 4.26301 8.1143 5.38181 7.21973 7.31974C6.97753 7.84643 6.82441 8.40089 6.7556 8.97918C6.75506 8.99713 6.75316 9.03786 6.7411 9.08139C6.73471 9.10444 6.72282 9.13128 6.70725 9.16028V10.214C6.7114 10.2216 6.71613 10.2289 6.71968 10.2366C6.74545 10.2927 6.75285 10.3437 6.7556 10.3724C6.75642 10.381 6.75594 10.3895 6.75629 10.3971C6.8312 11.0371 7.00174 11.6616 7.22526 12.2857L7.42141 12.8009C7.89849 13.9938 8.50765 15.1323 9.16192 16.2549H9.16261C9.77313 17.2939 10.4213 18.3082 11.0841 19.3193L11.7513 20.3297V20.3311C11.9688 20.6616 12.1606 20.9652 12.3922 21.2373C12.4002 21.2457 12.4079 21.2536 12.4143 21.2606C12.4186 21.2654 12.4229 21.2702 12.4267 21.2744C12.4307 21.2787 12.4343 21.2829 12.4378 21.2867C12.4394 21.2885 12.4412 21.2899 12.4426 21.2915C12.463 21.2937 12.4809 21.2965 12.4972 21.297C12.526 21.2978 12.5431 21.2957 12.5524 21.2936C12.5567 21.2926 12.5592 21.2919 12.56 21.2915C12.5608 21.2912 12.5613 21.2909 12.5614 21.2908C12.5619 21.2905 12.5635 21.2895 12.5656 21.2874C12.5681 21.2847 12.5724 21.2795 12.578 21.2709C12.6007 21.2359 12.624 21.2072 12.6395 21.1886C12.6563 21.1684 12.6603 21.163 12.665 21.157C13.0549 20.6304 13.407 20.0808 13.7736 19.5168L13.7743 19.5155C14.8133 17.9288 15.8308 16.3581 16.6855 14.6874L17.057 13.9396C17.4171 13.1902 17.7384 12.4328 17.9756 11.6443V11.6429C18.1172 11.1768 18.223 10.7149 18.265 10.2599V10.2572C18.3073 9.83809 18.3021 9.41451 18.2443 8.99152V8.98878C18.1321 8.11868 17.8607 7.31218 17.4038 6.59738L17.4031 6.5967C16.4144 5.04051 15.0314 4.12425 13.2293 3.85956C13.2113 3.85977 13.1768 3.86084 13.1402 3.85476C13.107 3.84922 13.0659 3.83686 13.0221 3.81497H11.9377C11.9329 3.81761 11.9282 3.82073 11.9232 3.8232ZM12.4716 6.45195C14.3138 6.45203 15.6764 7.96567 15.6764 9.67341C15.6762 11.435 14.2501 12.917 12.5055 12.9113V12.912L12.5048 12.9113L12.5041 12.912V12.9113C10.6245 12.9107 9.3223 11.2652 9.32837 9.66586V9.66518C9.34004 8.12515 10.5415 6.67205 12.118 6.48008V6.45195H12.4716ZM12.4716 7.1599C11.1542 7.1599 10.0457 8.36061 10.0356 9.66998C10.0314 10.9399 11.0748 12.2096 12.5055 12.2096H12.5062C13.8363 12.2146 14.9689 11.0704 14.9691 9.67341C14.9691 8.3765 13.9749 7.24329 12.6305 7.1599H12.4716Z" fill="#9D2824"/>
</svg>
