<svg width="50" height="50" viewBox="0 0 50 50" fill="none" xmlns="http://www.w3.org/2000/svg">
<path d="M26.3467 11.7804C26.5055 11.1148 27.176 10.6749 27.8584 10.8585C28.4231 11.0085 28.7889 11.5259 28.7891 12.0811C28.7891 12.1664 28.7805 12.2778 28.75 12.3936L28.751 12.3946L25.4717 25.9268L26.6719 29.2882C27.2565 29.555 27.7435 29.9288 28.0674 30.3917C28.5851 30.2273 29.1584 30.1378 29.7578 30.1378C30.7908 30.1379 31.7507 30.401 32.4785 30.8555C33.0614 31.2197 33.5269 31.7316 33.7178 32.3507C35.3871 32.3502 37.2187 32.3477 38.6709 32.3448C39.4566 32.3432 40.1319 32.3421 40.6104 32.3409C40.8495 32.3403 41.0406 32.3403 41.1709 32.3399C41.2353 32.3397 41.2856 32.339 41.3193 32.3389H41.373C42.9475 32.3394 44.197 33.6632 44.1973 35.2608C44.1973 36.8587 42.9477 38.1832 41.373 38.1837H8.62793C7.046 38.1837 5.80371 36.8581 5.80371 35.2608C5.80387 34.4597 6.11645 33.7292 6.62305 33.2013C7.13011 32.673 7.84042 32.3389 8.62793 32.3389H15.0986C15.2905 31.7213 15.7595 31.2122 16.3418 30.8507C17.0692 30.3992 18.027 30.1378 19.0537 30.1378C19.6683 30.1378 20.2562 30.2317 20.7832 30.4014C21.0854 29.9678 21.53 29.6139 22.0439 29.3555C22.0594 29.3478 22.0752 29.3407 22.0908 29.3331L22.123 29.2042L22.8818 26.0723L18.2236 13.047L18.2246 13.046C17.9943 12.4031 18.2942 11.6669 18.9482 11.418L18.9512 11.4171C19.0828 11.3681 19.2331 11.3351 19.3926 11.335C19.9047 11.335 20.3697 11.661 20.5488 12.1661L23.9482 21.6729L26.3467 11.7804ZM8.62793 33.3389C8.12934 33.3389 7.67406 33.5495 7.34375 33.8936C7.01332 34.2382 6.80387 34.7217 6.80371 35.2608C6.80371 36.3452 7.63688 37.1837 8.62793 37.1837H41.373C42.3585 37.1832 43.1973 36.344 43.1973 35.2608C43.197 34.2455 42.4597 33.4451 41.5557 33.3487L41.373 33.3389H41.3223C41.2884 33.339 41.2377 33.3397 41.1729 33.3399C41.0426 33.3403 40.8522 33.3403 40.6133 33.3409C40.1346 33.3421 39.4588 33.3432 38.6729 33.3448C37.2571 33.3477 35.4804 33.35 33.8447 33.3507L33.8457 33.3516H33.3076C32.1612 33.3516 31.1149 33.3513 30.3535 33.3497C29.9733 33.3489 29.6622 33.3476 29.4453 33.3458C29.3376 33.3449 29.2505 33.3441 29.1895 33.3429C29.16 33.3422 29.1327 33.3418 29.1113 33.3409L29.085 33.3389H8.62793ZM29.7578 31.1378C29.2886 31.1378 28.8476 31.2024 28.4551 31.3175C28.4732 31.4271 28.4863 31.5378 28.4863 31.6495C28.4863 31.714 28.4816 31.7779 28.4756 31.8409C28.4728 31.8711 28.4679 31.9009 28.4639 31.9307C28.4592 31.9638 28.4544 31.9967 28.4482 32.0294C28.4405 32.0712 28.4311 32.1124 28.4209 32.1534C28.4179 32.1651 28.4153 32.1769 28.4121 32.1886C28.3986 32.2393 28.3844 32.2895 28.3672 32.3389H29.2656L29.2666 32.3399C29.3154 32.3401 29.3757 32.3405 29.4453 32.3409C29.6596 32.3421 29.9698 32.3432 30.3506 32.3448C30.9583 32.3473 31.7477 32.3486 32.623 32.3497C32.4813 32.1206 32.2592 31.8985 31.9482 31.7042C31.4004 31.362 30.6299 31.1379 29.7578 31.1378ZM19.0537 31.1378C18.1876 31.1378 17.4176 31.3599 16.8691 31.7003C16.5593 31.8927 16.3382 32.1131 16.1963 32.3389H20.4941C20.4746 32.2837 20.4573 32.2279 20.4424 32.171C20.4417 32.1684 20.4411 32.1658 20.4404 32.1632C20.4285 32.1168 20.4179 32.07 20.4092 32.0225C20.404 31.9951 20.4006 31.9673 20.3965 31.9395C20.3919 31.9071 20.3859 31.8748 20.3828 31.8419C20.3767 31.7787 20.374 31.7143 20.374 31.6495C20.374 31.5856 20.3775 31.5228 20.3838 31.461C20.387 31.4268 20.3916 31.393 20.3965 31.3595C20.398 31.3491 20.3997 31.3385 20.4014 31.3282C19.9981 31.207 19.5404 31.1378 19.0537 31.1378ZM24.4297 29.8223C23.6877 29.8224 23.0163 29.9863 22.4932 30.2491C21.9764 30.5088 21.6332 30.8487 21.4756 31.1934L21.4688 31.211C21.4057 31.3612 21.3741 31.5043 21.374 31.6495L21.3887 31.8233C21.4181 31.9973 21.4922 32.1701 21.6143 32.3389H27.251C27.4102 32.1166 27.4863 31.8845 27.4863 31.6495C27.4862 31.5008 27.4532 31.3493 27.3906 31.21L27.3896 31.2071C27.072 30.4891 25.9554 29.8225 24.4297 29.8223ZM24.8359 28.5616L24.9004 28.7432C25.0809 28.7608 25.2607 28.7834 25.4395 28.8116L25.043 27.7022L24.8359 28.5616ZM27.5996 11.8233C27.4955 11.795 27.3558 11.8594 27.3193 12.0128V12.0157L24.5273 23.5333L23.8906 26.1641L23.585 27.418L23.5176 27.7022L23.2666 28.7325C23.3268 28.7272 23.3873 28.7219 23.4473 28.7179L23.752 28.7022C23.7576 28.702 23.7638 28.7025 23.7695 28.7022L23.8291 28.462L24.4658 25.8331L27.7793 12.1593L27.7812 12.1495L27.7842 12.1388C27.7846 12.1371 27.7861 12.1314 27.7871 12.1221C27.7883 12.111 27.7891 12.0969 27.7891 12.0811C27.7889 11.9539 27.7047 11.8516 27.6025 11.8243L27.5996 11.8233ZM19.3926 12.335C19.3701 12.3351 19.3379 12.3404 19.2998 12.3546C19.1917 12.3984 19.1061 12.5448 19.165 12.7091L19.166 12.71L23.3115 24.3018L23.5195 23.4425L19.6074 12.503L19.6064 12.5011C19.5665 12.3877 19.4743 12.335 19.3926 12.335Z" fill="black"/>
</svg>
