<svg width="50" height="50" viewBox="0 0 50 50" fill="none" xmlns="http://www.w3.org/2000/svg">
<path d="M30.5293 5.06543L33.4258 5.83398L33.9189 5.96484L33.7783 6.45508L31.7266 13.6074H36.0586V41.2637C36.0584 42.7012 34.8538 43.8408 33.3945 43.8408H23.0371L22.9688 44.0557L22.5098 43.9336L22.1582 43.8408H16.5967C15.1449 43.8408 13.9416 42.6999 13.9414 41.2637V13.6074H27.5684L29.9199 5.41113L30.0557 4.93945L30.5293 5.06543ZM14.9414 41.2637C14.9416 42.1152 15.6642 42.8408 16.5967 42.8408H33.3945C34.3372 42.8408 35.0584 42.1139 35.0586 41.2637V21.042H14.9414V41.2637ZM29.8818 20.0322H35.0586V14.6074H31.4395L29.8818 20.0322ZM26.7637 20.0322H28.8398L30.3984 14.6074H28.3213L26.7637 20.0322ZM14.9414 20.0322H25.7227L27.2812 14.6074H14.9414V20.0322ZM28.6084 13.6074H30.6855L32.6758 6.66992L30.7451 6.15723L28.6084 13.6074Z" fill="black"/>
</svg>
