<svg width="25" height="25" viewBox="0 0 25 25" fill="none" xmlns="http://www.w3.org/2000/svg">
<path d="M7.42051 3.10753C7.80813 2.94944 8.18884 2.97234 8.53934 3.13251L8.68804 3.20958L8.6902 3.21029C9.05882 3.42785 9.33137 3.73247 9.55784 4.03242H9.55712C9.89096 4.46941 10.1649 4.96619 10.4305 5.39906C10.6294 5.72105 10.8166 6.05792 10.9654 6.42672L11.0268 6.58658L11.0275 6.58872C11.1038 6.80256 11.1641 7.02499 11.1978 7.26026L11.2224 7.50005V7.50362C11.2503 8.06454 11.0727 8.55866 10.7272 8.97659L10.7258 8.97802C10.5475 9.19142 10.3235 9.37657 10.162 9.52325C9.99907 9.6763 9.79796 9.87161 9.56073 10.0207L9.56145 10.0214C9.49739 10.0625 9.43711 10.1064 9.38388 10.1527L9.37739 10.1584H9.37666C9.19184 10.3117 9.07091 10.4757 9.0143 10.6822L9.01358 10.6836C8.97653 10.8167 8.97006 10.9578 8.98471 11.1161L9.00564 11.2717C9.04931 11.5298 9.13813 11.7794 9.2554 12.0317L9.40842 12.3365V12.3372C9.69527 12.8778 10.0572 13.3787 10.4471 13.8751L10.8145 14.3254C10.9385 14.4731 11.0648 14.6197 11.1928 14.765L11.4772 15.0719C11.7646 15.3735 12.0609 15.657 12.3766 15.9126H12.3759C12.6839 16.1591 12.9874 16.3534 13.3236 16.4671C13.5799 16.5528 13.7967 16.564 14.0007 16.4813C14.1169 16.4336 14.2239 16.363 14.3212 16.2708L14.3234 16.2687C14.4161 16.1821 14.502 16.0823 14.5962 15.9718C14.7477 15.7934 14.9354 15.6387 15.0589 15.5258C15.1909 15.4006 15.3255 15.2789 15.4682 15.1625C15.798 14.8834 16.1948 14.6863 16.6606 14.6558H16.6621C16.9424 14.6386 17.2035 14.6867 17.4431 14.7664L17.6755 14.8549L17.6784 14.8564C18.151 15.0656 18.5492 15.3651 18.9099 15.6785L18.9135 15.6821C19.0528 15.8062 19.192 15.9305 19.3314 16.0546L19.7501 16.4264L19.753 16.4292C20.0403 16.6908 20.3331 16.9846 20.5787 17.3327L20.6812 17.4854L20.6834 17.4883C20.8289 17.7227 20.9537 17.998 20.9909 18.3218L20.9996 18.4482C21.0069 18.7378 20.9218 18.9955 20.7974 19.2225L20.7953 19.2275L20.7924 19.2317C20.655 19.4655 20.4786 19.6457 20.3131 19.7991L20.3124 19.8005C20.1037 19.9926 19.9157 20.1537 19.732 20.3393C19.3821 20.6974 18.9893 20.9963 18.5612 21.2421C18.02 21.5534 17.4417 21.7667 16.8346 21.8894L16.8339 21.8901C16.5715 21.9422 16.3032 21.9742 16.0355 21.9872L16.0262 21.9879H16.0175C15.9354 21.9879 15.8511 21.9935 15.7021 22L15.6977 21.9001V22H15.6862L15.6855 21.9993C15.0594 21.9979 14.415 21.8881 13.7827 21.6853V21.6846C13.0146 21.445 12.3024 21.091 11.6353 20.6633L11.3516 20.4756C10.8677 20.1455 10.4084 19.7848 9.96784 19.3937L9.62786 19.0855C9.51653 18.9817 9.40648 18.8763 9.29654 18.7679C9.0825 18.5568 8.86201 18.3397 8.64689 18.1092L8.64545 18.107C8.24138 17.6674 7.84058 17.213 7.46237 16.7447V16.744C6.89718 16.0502 6.36493 15.3236 5.88518 14.5516V14.5509C5.53074 13.9781 5.20272 13.3885 4.92153 12.7646V12.7639C4.61692 12.0972 4.36986 11.4015 4.20692 10.6779V10.6772C4.13447 10.3498 4.08009 10.0219 4.04379 9.69381V9.6931C4.01368 9.41677 3.99495 9.13375 4.0012 8.84671C4.00183 8.34715 4.06298 7.85633 4.17227 7.37516L4.173 7.37302C4.27706 6.92633 4.42432 6.49 4.62197 6.07132C4.82649 5.63837 5.08096 5.23683 5.38495 4.8681C5.64732 4.54901 5.93859 4.27201 6.24898 4.01815C6.40405 3.88979 6.5559 3.74314 6.71456 3.58996L6.71817 3.58639C6.90166 3.41419 7.12836 3.22398 7.42051 3.10682V3.10753ZM4.37078 8.85456L4.73963 8.86241C4.73428 9.10823 4.75066 9.35806 4.77861 9.61459L4.80676 9.84082C4.83803 10.0669 4.87867 10.2931 4.92875 10.5195L4.98866 10.7693C5.11612 11.267 5.28662 11.7534 5.49106 12.2287L5.59572 12.4656L5.59644 12.4671C5.86118 13.0544 6.17216 13.6156 6.51461 14.1691H6.51533C6.86106 14.7254 7.23627 15.2594 7.63417 15.7763L8.03911 16.2872L8.03984 16.2887C8.40454 16.7402 8.79359 17.1814 9.19043 17.6132C9.39351 17.8308 9.60337 18.0377 9.81914 18.2505C9.92406 18.354 10.0289 18.4546 10.1353 18.5538L10.4601 18.8485L10.4609 18.8492C10.8797 19.221 11.3149 19.5624 11.7717 19.874L11.7724 19.8747C12.3873 20.2953 13.0301 20.6442 13.7127 20.8903L14.0079 20.9895L14.0108 20.9902C14.5765 21.1717 15.1421 21.2665 15.6804 21.2685C15.7994 21.2633 15.9049 21.2577 16.0016 21.2571C16.2322 21.2458 16.4624 21.2181 16.6866 21.1736C17.2179 21.0662 17.7201 20.8798 18.1895 20.6098H18.1902C18.5631 20.3957 18.902 20.138 19.2022 19.8305L19.2036 19.8284C19.4033 19.6265 19.6223 19.4366 19.8085 19.2653C19.9549 19.1296 20.0671 19.0076 20.15 18.8678C20.2378 18.7056 20.2747 18.5593 20.2568 18.4061V18.4046C20.2358 18.2212 20.1636 18.0497 20.0547 17.8737L19.9724 17.7502C19.7723 17.4667 19.5237 17.2146 19.252 16.9673V16.9666L18.4219 16.2273C18.0857 15.9352 17.7519 15.6898 17.3767 15.5236H17.376C17.1436 15.424 16.9265 15.3713 16.709 15.3845C16.4344 15.4025 16.1826 15.5187 15.9446 15.7213L15.9388 15.7263C15.8144 15.8278 15.6934 15.9361 15.57 16.0531L15.5656 16.0574C15.399 16.2103 15.2759 16.3081 15.1621 16.4421L15.1614 16.4428C15.0704 16.5496 14.9586 16.6787 14.8315 16.7975L14.8322 16.7982C14.6742 16.948 14.4908 17.0717 14.2822 17.1572H14.2815C13.8582 17.3288 13.447 17.2795 13.0876 17.1593H13.0861C12.6333 17.0065 12.2521 16.7528 11.9103 16.4792L11.9088 16.4785C11.4468 16.1045 11.0312 15.6829 10.6413 15.2517L10.6384 15.2482C10.3737 14.9476 10.1135 14.6398 9.86462 14.3247L9.8639 14.324C9.46421 13.8153 9.07152 13.2744 8.75445 12.6769C8.52049 12.2389 8.30169 11.746 8.24844 11.1839V11.1832C8.22837 10.9667 8.23332 10.7327 8.30042 10.491C8.39318 10.1526 8.5791 9.89296 8.80353 9.68453L8.90242 9.59818C8.98654 9.52577 9.07476 9.46266 9.15939 9.40835L9.163 9.4055C9.32861 9.30182 9.47364 9.16194 9.65745 8.98944L9.66179 8.98516C9.86039 8.80479 10.0201 8.6748 10.1555 8.51272C10.3892 8.22955 10.5013 7.91359 10.4839 7.54429L10.4659 7.36303C10.4403 7.1838 10.3933 7.00888 10.3302 6.83207V6.83136C10.1969 6.46521 10.014 6.12607 9.80038 5.78015L9.79965 5.77944C9.50814 5.3045 9.27102 4.86945 8.96666 4.47132L8.96522 4.46989C8.76189 4.20057 8.55826 3.98415 8.31124 3.83831V3.83759C8.09889 3.71476 7.90722 3.69907 7.7013 3.78336L7.69841 3.78407C7.53872 3.84811 7.39411 3.95933 7.23066 4.11235C7.0761 4.26158 6.90316 4.42979 6.72178 4.57979L6.72033 4.58122C6.50893 4.75411 6.3127 4.93428 6.13276 5.1293L5.95808 5.32984C5.75905 5.57125 5.58439 5.82865 5.43403 6.10201L5.29183 6.38033C5.11786 6.74882 4.98679 7.13615 4.89338 7.53716C4.79438 7.97357 4.74035 8.41251 4.74035 8.85456V8.86241L4.37078 8.85456Z" fill="#9D2824"/>
</svg>
